<svg width="180" height="40" viewBox="0 0 180 40" fill="none" xmlns="http://www.w3.org/2000/svg">
  <!-- Logo Icon -->
  <circle cx="20" cy="20" r="18" fill="url(#gradient)" />
  
  <!-- Code Brackets -->
  <path d="M12 14L8 20L12 26" stroke="white" stroke-width="2" stroke-linecap="round" stroke-linejoin="round"/>
  <path d="M28 14L32 20L28 26" stroke="white" stroke-width="2" stroke-linecap="round" stroke-linejoin="round"/>
  
  <!-- Center Gear/Tool Icon -->
  <circle cx="20" cy="20" r="3.5" fill="none" stroke="white" stroke-width="1.5"/>
  <path d="M20 13V16M20 24V27M27 20H24M16 20H13M25.5 14.5L24 16M16 24L14.5 25.5M25.5 25.5L24 24M16 16L14.5 14.5" stroke="white" stroke-width="1.5" stroke-linecap="round"/>
  <circle cx="20" cy="20" r="1.5" fill="white"/>
  
  <!-- DevTools Text -->
  <g fill="#1a1a1a">
    <!-- Dev -->
    <path d="M55 12V28H59.5C62.5 28 65 25.5 65 22.5V17.5C65 14.5 62.5 12 59.5 12H55ZM58 15H59.5C60.9 15 62 16.1 62 17.5V22.5C62 23.9 60.9 25 59.5 25H58V15Z"/>
    <path d="M70 12V28H81V25H73V21H80V18H73V15H81V12H70Z"/>
    <path d="M86 12L89 22L92 12H95L90 28H88L83 12H86Z"/>
    
    <!-- Tools -->
    <path d="M102 12V15H108V28H111V15H117V12H102Z"/>
    <path d="M122 12C119 12 116.5 14.5 116.5 17.5V22.5C116.5 25.5 119 28 122 28H128C131 28 133.5 25.5 133.5 22.5V17.5C133.5 14.5 131 12 128 12H122ZM122 15H128C129.4 15 130.5 16.1 130.5 17.5V22.5C130.5 23.9 129.4 25 128 25H122C120.6 25 119.5 23.9 119.5 22.5V17.5C119.5 16.1 120.6 15 122 15Z"/>
    <path d="M138 12C135 12 132.5 14.5 132.5 17.5V22.5C132.5 25.5 135 28 138 28H144C147 28 149.5 25.5 149.5 22.5V17.5C149.5 14.5 147 12 144 12H138ZM138 15H144C145.4 15 146.5 16.1 146.5 17.5V22.5C146.5 23.9 145.4 25 144 25H138C136.6 25 135.5 23.9 135.5 22.5V17.5C135.5 16.1 136.6 15 138 15Z"/>
    <path d="M154 12V28H165V25H157V12H154Z"/>
    <path d="M170 15V12H167V15H164V18H167V25C167 26.1 167.9 27 169 27H173V24H170V18H173V15H170Z"/>
  </g>
  
  <!-- Gradient Definition -->
  <defs>
    <linearGradient id="gradient" x1="0%" y1="0%" x2="100%" y2="100%">
      <stop offset="0%" style="stop-color:#2196F3;stop-opacity:1" />
      <stop offset="100%" style="stop-color:#F50057;stop-opacity:1" />
    </linearGradient>
  </defs>
</svg> 